<?xml version="1.0" encoding="UTF-8"?>
<svg width="128pt" height="128pt" version="1.1" viewBox="0 0 128 128" fill= "grey" xmlns="http://www.w3.org/2000/svg">
 <path d="m110.08 17.281h-92.156c-3.8867 0.003906-7.0352 3.1523-7.043 7.0391v79.359c0.007813 3.8867 3.1562 7.0352 7.043 7.0391h92.156c3.8867-0.003906 7.0352-3.1523 7.043-7.0391v-79.359c-0.007813-3.8867-3.1562-7.0352-7.043-7.0391zm3.2031 86.398c0 0.84766-0.33984 1.6641-0.9375 2.2617-0.60156 0.60156-1.4141 0.9375-2.2656 0.9375h-92.156c-1.7695 0-3.2031-1.4297-3.2031-3.1992v-67.199h98.559zm0-71.039h-98.559l-0.003906-8.3203c0-1.7695 1.4336-3.1992 3.2031-3.1992h92.156c0.85156 0 1.6641 0.33594 2.2656 0.9375 0.59766 0.59766 0.9375 1.4141 0.9375 2.2617zm-3.2031-5.7617c0 1.0352-0.62109 1.9688-1.5781 2.3672-0.95703 0.39453-2.0586 0.17578-2.7891-0.55469-0.73438-0.73438-0.95313-1.8359-0.55469-2.793 0.39453-0.95313 1.3281-1.5781 2.3633-1.5781 0.67969 0 1.332 0.26953 1.8125 0.75 0.47656 0.48047 0.74609 1.1289 0.74609 1.8086zm-10.238 0c0 1.0352-0.625 1.9688-1.582 2.3672-0.95312 0.39453-2.0547 0.17578-2.7891-0.55469-0.73047-0.73438-0.94922-1.8359-0.55469-2.793 0.39844-0.95313 1.332-1.5781 2.3672-1.5781 0.67578 0 1.3281 0.26953 1.8086 0.75 0.48047 0.48047 0.75 1.1289 0.75 1.8086zm-10.238 0c0 1.0352-0.625 1.9688-1.582 2.3672-0.95703 0.39453-2.0586 0.17578-2.7891-0.55469-0.73438-0.73438-0.95312-1.8359-0.55469-2.793 0.39453-0.95313 1.3281-1.5781 2.3633-1.5781 0.67969 0 1.332 0.26953 1.8125 0.75 0.48047 0.48047 0.75 1.1289 0.75 1.8086zm-50.867 41.434 3.5039 2.3828v2.3555l-3.4414 2.4688c-0.69922 0.48828-0.99219 1.3828-0.71875 2.1875l1.6016 4.7891c0.26562 0.80859 1.0469 1.3359 1.8945 1.2812l4.25-0.15234 1.4062 1.8945-1.3828 4.082c-0.27344 0.80469 0.011719 1.6953 0.70703 2.1875l4.1445 2.9297c0.68359 0.51172 1.6211 0.51172 2.3047 0l3.3398-2.5586 2.2539 0.70312 1.2812 4.0703c0.24609 0.80859 0.99609 1.3594 1.8438 1.3594h5.1211-0.003906c0.85547-0.007813 1.5977-0.57812 1.832-1.3984l1.1641-4.082 2.2383-0.74219 3.3906 2.5586h0.003906c0.68359 0.51172 1.6211 0.51172 2.3047 0l4.0977-3.0352-0.003906 0.003906c0.6875-0.50781 0.95703-1.4023 0.66797-2.2031l-1.4609-3.9922 1.3711-1.9219 4.25 0.078125c0.82031 0.007812 1.5547-0.50781 1.8281-1.2812l1.5352-4.8633h0.003906c0.25781-0.8125-0.050781-1.6992-0.75781-2.1758l-3.543-2.5742v-2.3555l3.4414-2.4688c0.69922-0.48828 0.99219-1.3789 0.71875-2.1875l-1.6016-4.7891c-0.26172-0.80859-1.043-1.3398-1.8945-1.2773l-4.25 0.15234-1.4062-1.8945 1.3828-4.082c0.27344-0.80859-0.011719-1.6992-0.70703-2.1914l-4.1445-2.9297c-0.68359-0.51172-1.6211-0.51172-2.3047 0l-3.3398 2.5586-2.2539-0.70312-1.2812-4.0703c-0.24609-0.80859-0.99609-1.3594-1.8438-1.3555h-5.1211 0.003906c-0.85547 0.003907-1.5977 0.57422-1.832 1.3945l-1.1641 4.082-2.2383 0.74219-3.3906-2.5586h-0.003906c-0.68359-0.51172-1.6211-0.51172-2.3047 0l-4.0977 3.0352 0.003906-0.003906c-0.6875 0.50781-0.95703 1.4023-0.66797 2.2031l1.4609 3.9922-1.3711 1.9219-4.25-0.078125c-0.83594-0.023437-1.5898 0.49219-1.8672 1.2812l-1.5352 4.8633c-0.35156 0.88672 0.003906 1.8945 0.83203 2.3672zm4.0078-4.5039 3.8398 0.078125h-0.003906c0.63281 0.003906 1.2305-0.29688 1.6016-0.80859l2.5586-3.5703c0.37109-0.51562 0.46094-1.1836 0.24219-1.7812l-1.2812-3.5977 1.793-1.2812 3.0586 2.3047 0.003907 0.003906c0.50391 0.38281 1.1641 0.49219 1.7656 0.29297l4.1602-1.3945c0.61328-0.1875 1.0938-0.66797 1.2812-1.2812l0.95703-3.7227h2.2266l1.1133 3.6602h0.003906c0.18359 0.61328 0.66406 1.0938 1.2773 1.2812l4.1875 1.2812v-0.003907c0.60547 0.19141 1.2656 0.074219 1.7656-0.32031l3.0078-2.3555 1.8164 1.2812-1.2812 3.6211h0.003906c-0.20703 0.59766-0.10938 1.2578 0.26562 1.7695l2.5586 3.5195h0.003907c0.36719 0.51953 0.97656 0.81641 1.6133 0.78125l3.8398-0.14062 0.70312 2.1133-3.1367 2.1992c-0.5 0.375-0.78906 0.97266-0.76562 1.5977v4.3789c0.003906 0.63281 0.32031 1.2227 0.84375 1.5742l3.1758 2.1367-0.66406 2.125-3.8398-0.078125-0.003906 0.003906c-0.63281-0.011718-1.2305 0.28906-1.6016 0.80469l-2.5586 3.5703c-0.37109 0.51563-0.46094 1.1836-0.24219 1.7812l1.2812 3.5977-1.793 1.2812-3.0586-2.3047v-0.003906c-0.50781-0.38281-1.168-0.49219-1.7695-0.29297l-4.0938 1.4336c-0.61328 0.1875-1.0938 0.66797-1.2812 1.2812l-1.0352 3.6836h-2.2266l-1.1133-3.6602h-0.003906c-0.18359-0.61328-0.66406-1.0938-1.2773-1.2773l-4.1875-1.2812c-0.60547-0.19141-1.2656-0.074219-1.7656 0.32031l-3.0078 2.3555-1.7773-1.293 1.2812-3.6211-0.003906-0.003906c0.20703-0.59375 0.10547-1.2539-0.26953-1.7656l-2.5586-3.5195c-0.37109-0.51562-0.97656-0.8125-1.6133-0.78125l-3.8398 0.14062-0.70312-2.1133 3.1367-2.1875c0.48828-0.38281 0.75781-0.98047 0.72656-1.5977v-4.3789c-0.003906-0.63281-0.32031-1.2188-0.84375-1.5742l-3.1758-2.1367zm18.16 17.688c3.9453 1.2227 8.2422-0.046875 10.891-3.2188 2.6484-3.1719 3.1289-7.6211 1.2227-11.289-1.9062-3.6641-5.832-5.8242-9.9492-5.4766-4.1172 0.34766-7.6211 3.1367-8.8828 7.0703-0.83984 2.6055-0.59766 5.4336 0.66406 7.8594 1.2617 2.4258 3.4414 4.2461 6.0547 5.0547zm-3.0586-11.762c0.79297-2.4531 2.9844-4.1914 5.5547-4.4062 2.5703-0.21484 5.0195 1.1328 6.2109 3.4219s0.89062 5.0664-0.75781 7.0508c-1.6523 1.9805-4.332 2.7812-6.7969 2.0234-1.6406-0.50391-3.0078-1.6445-3.8008-3.1641-0.78906-1.5195-0.9375-3.293-0.41016-4.9258z"/>
</svg>
