<?xml version="1.0" encoding="UTF-8"?>
<svg width="128pt" height="128pt" version="1.1" viewBox="0 0 128 128" fill= "grey" xmlns="http://www.w3.org/2000/svg">
 <g>
  <path d="m14.078 115.2h99.84c0.70703 0 1.2812-0.57422 1.2812-1.2812v-97.719c0-0.011719-0.007813-0.023438-0.007813-0.039063-0.003906-0.11719-0.035156-0.22656-0.066406-0.33984-0.015625-0.042968-0.015625-0.09375-0.035156-0.13672-0.058594-0.14062-0.14453-0.26172-0.25-0.37109-0.007813-0.007812-0.007813-0.015625-0.015625-0.023438-0.10547-0.10937-0.23438-0.19141-0.37891-0.25781-0.011718-0.003906-0.019531-0.011719-0.027343-0.015625-0.023438-0.007813-0.035157-0.027344-0.058594-0.035156-12.742-4.6211-23.301-0.96094-25.41-0.12891-12.562-4.3984-22.93-0.82422-25.016 0-12.59-4.4102-22.977-0.80859-25.027 0.007813-13.73-4.8398-24.871-0.042969-25.34 0.16797-0.46875 0.20703-0.76562 0.66406-0.76562 1.1719v97.723c0 0.70312 0.57031 1.2773 1.2773 1.2773zm98.562-25.477h-22.293v-8h22.293zm-24.852 0h-22.457v-8h22.453zm-22.457 2.5586h22.453l0.003906 20.359h-22.457zm-2.5586 20.359h-22.453v-20.359h22.453zm0-22.918h-22.453v-8h22.453zm-25.012 0h-22.402v-8h22.398zm-22.402 2.5586h22.398l0.003907 20.359h-22.402zm74.988 20.359v-20.359h22.293v20.359zm22.293-95.531v62.051l-22.293 0.003906v-62.102c2.6172-0.92578 11.645-3.5117 22.293 0.046875zm-24.852 0.054687v62h-22.457v-62.102c2.6328-0.92969 11.738-3.5391 22.457 0.10156zm-25.016 0v62h-22.453v-62.102c2.6289-0.92969 11.734-3.5391 22.453 0.10156zm-25.012 0.011719v61.988h-22.402v-62.09c2.625-0.93359 11.707-3.5625 22.402 0.10156z"/>
  <path d="m26.773 42.195c4.5 0 8.1602-3.6602 8.1602-8.1602s-3.6602-8.1602-8.1602-8.1602-8.1602 3.6602-8.1602 8.1602 3.6602 8.1602 8.1602 8.1602zm0-13.762c3.0859 0 5.6016 2.5117 5.6016 5.6016s-2.5117 5.6016-5.6016 5.6016c-3.0859 0-5.6016-2.5117-5.6016-5.6016s2.5156-5.6016 5.6016-5.6016z"/>
  <path d="m51.441 42.195c4.5 0 8.1602-3.6602 8.1602-8.1602s-3.6602-8.1602-8.1602-8.1602-8.1602 3.6602-8.1602 8.1602 3.6602 8.1602 8.1602 8.1602zm0-13.762c3.0859 0 5.6016 2.5117 5.6016 5.6016s-2.5117 5.6016-5.6016 5.6016c-3.0859 0-5.6016-2.5117-5.6016-5.6016s2.5117-5.6016 5.6016-5.6016z"/>
  <path d="m76.105 42.195c4.5 0 8.1602-3.6602 8.1602-8.1602s-3.6602-8.1602-8.1602-8.1602-8.1602 3.6602-8.1602 8.1602 3.6602 8.1602 8.1602 8.1602zm0-13.762c3.0859 0 5.6016 2.5117 5.6016 5.6016s-2.5117 5.6016-5.6016 5.6016c-3.0859 0-5.6016-2.5117-5.6016-5.6016 0.003906-3.0898 2.5156-5.6016 5.6016-5.6016z"/>
  <path d="m101.36 42.195c4.5 0 8.1602-3.6602 8.1602-8.1602s-3.6602-8.1602-8.1602-8.1602-8.1602 3.6602-8.1602 8.1602 3.6602 8.1602 8.1602 8.1602zm0-13.762c3.0859 0 5.6016 2.5117 5.6016 5.6016s-2.5117 5.6016-5.6016 5.6016c-3.0859 0-5.6016-2.5117-5.6016-5.6016 0.003907-3.0898 2.5156-5.6016 5.6016-5.6016z"/>
  <path d="m32.535 48.531h-11.52c-0.70703 0-1.2812 0.57422-1.2812 1.2812s0.57422 1.2812 1.2812 1.2812h11.52c0.70703 0 1.2812-0.57422 1.2812-1.2812-0.003906-0.70703-0.57422-1.2812-1.2812-1.2812z"/>
  <path d="m32.535 54.82h-11.52c-0.70703 0-1.2812 0.57422-1.2812 1.2812 0 0.70703 0.57422 1.2812 1.2812 1.2812h11.52c0.70703 0 1.2812-0.57422 1.2812-1.2812-0.003906-0.71094-0.57422-1.2812-1.2812-1.2812z"/>
  <path d="m57.199 48.531h-11.52c-0.70703 0-1.2812 0.57422-1.2812 1.2812s0.57422 1.2812 1.2812 1.2812h11.52c0.70703 0 1.2812-0.57422 1.2812-1.2812s-0.57422-1.2812-1.2812-1.2812z"/>
  <path d="m57.199 54.82h-11.52c-0.70703 0-1.2812 0.57422-1.2812 1.2812 0 0.70703 0.57422 1.2812 1.2812 1.2812h11.52c0.70703 0 1.2812-0.57422 1.2812-1.2812 0-0.71094-0.57422-1.2812-1.2812-1.2812z"/>
  <path d="m81.867 48.531h-11.52c-0.70703 0-1.2812 0.57422-1.2812 1.2812s0.57422 1.2812 1.2812 1.2812h11.52c0.70703 0 1.2812-0.57422 1.2812-1.2812s-0.57422-1.2812-1.2812-1.2812z"/>
  <path d="m81.867 54.82h-11.52c-0.70703 0-1.2812 0.57422-1.2812 1.2812 0 0.70703 0.57422 1.2812 1.2812 1.2812h11.52c0.70703 0 1.2812-0.57422 1.2812-1.2812 0-0.71094-0.57422-1.2812-1.2812-1.2812z"/>
  <path d="m107.12 48.531h-11.52c-0.70703 0-1.2812 0.57422-1.2812 1.2812s0.57422 1.2812 1.2812 1.2812h11.52c0.70703 0 1.2812-0.57422 1.2812-1.2812-0.003906-0.70703-0.57422-1.2812-1.2812-1.2812z"/>
  <path d="m107.12 54.82h-11.52c-0.70703 0-1.2812 0.57422-1.2812 1.2812 0 0.70703 0.57422 1.2812 1.2812 1.2812h11.52c0.70703 0 1.2812-0.57422 1.2812-1.2812-0.003906-0.71094-0.57422-1.2812-1.2812-1.2812z"/>
 </g>
</svg>
