<?xml version="1.0" encoding="UTF-8"?>
<svg width="128pt" height="128pt" version="1.1" viewBox="0 0 128 128" xmlns="http://www.w3.org/2000/svg">
 <g>
  <path d="m123 76.262-9-5.1406v-15.121c-0.011719-3.3086-2.6914-5.9883-6-6h-20v-16h2c0.53125 0 1.0391-0.21094 1.4141-0.58594s0.58594-0.88281 0.58594-1.4141v-12c0-0.53125-0.21094-1.0391-0.58594-1.4141s-0.88281-0.58594-1.4141-0.58594h-26.059c1.3281-1.7188 2.0508-3.8281 2.0586-6v-4c0-0.53125-0.21094-1.0391-0.58594-1.4141s-0.88281-0.58594-1.4141-0.58594h-8c-3.1602 0.011719-6.125 1.5195-8 4.0586-1.875-2.5391-4.8398-4.0469-8-4.0586h-8c-1.1055 0-2 0.89453-2 2v4c0.007812 2.1719 0.73047 4.2812 2.0586 6h-26.059c-1.1055 0-2 0.89453-2 2v12c0 0.53125 0.21094 1.0391 0.58594 1.4141s0.88281 0.58594 1.4141 0.58594h2v66c0 0.53125 0.21094 1.0391 0.58594 1.4141s0.88281 0.58594 1.4141 0.58594h8.1992c0.85156 4.2148 4.3086 7.4102 8.5781 7.9258 4.2695 0.51953 8.3867-1.7578 10.223-5.6445 1.8359 3.8867 5.9531 6.1641 10.223 5.6445 4.2695-0.51562 7.7266-3.7109 8.5781-7.9258h40.398c0.94531 4.6602 5.0469 8.0117 9.8008 8.0117s8.8555-3.3516 9.8008-8.0117h6.1992c0.53125 0 1.0391-0.21094 1.4141-0.58594s0.58594-0.88281 0.58594-1.4141v-22c0.003906-0.71875-0.37891-1.3828-1-1.7383zm-21-22.262h6c0.53125 0 1.0391 0.21094 1.4141 0.58594s0.58594 0.88281 0.58594 1.4141v14h-8zm-52-38c0.011719-3.3086 2.6914-5.9883 6-6h6v2c-0.011719 3.3086-2.6914 5.9883-6 6h-6zm4 6v8h-12v-8zm-20-12h6c3.3086 0.011719 5.9883 2.6914 6 6v2h-6c-3.3086-0.011719-5.9883-2.6914-6-6zm-26 20v-8h30v8zm20 76c-2.4258 0-4.6133-1.4609-5.543-3.7031-0.92969-2.2422-0.41406-4.8242 1.3008-6.5391 1.7148-1.7148 4.2969-2.2305 6.5391-1.3008 2.2422 0.92969 3.7031 3.1172 3.7031 5.543-0.011719 3.3086-2.6914 5.9883-6 6zm18 0c-2.4258 0-4.6133-1.4609-5.543-3.7031-0.92969-2.2422-0.41406-4.8242 1.3008-6.5391 1.7148-1.7148 4.2969-2.2305 6.5391-1.3008 2.2422 0.92969 3.7031 3.1172 3.7031 5.543-0.011719 3.3086-2.6914 5.9883-6 6zm38-8h-28.199c-0.85156-4.2148-4.3086-7.4102-8.5781-7.9258-4.2695-0.51953-8.3867 1.7578-10.223 5.6445-1.8359-3.8867-5.9531-6.1641-10.223-5.6445-4.2695 0.51562-7.7266 3.7109-8.5781 7.9258h-6.1992v-12h72zm0-16h-72v-48h72zm-26-52v-8h30v8zm48 76c-2.4258 0-4.6133-1.4609-5.543-3.7031-0.92969-2.2422-0.41406-4.8242 1.3008-6.5391 1.7148-1.7148 4.2969-2.2305 6.5391-1.3008 2.2422 0.92969 3.7031 3.1172 3.7031 5.543-0.011719 3.3086-2.6914 5.9883-6 6zm14-18h-4v-4h4zm0-8h-6c-1.1055 0-2 0.89453-2 2v8c0 0.53125 0.21094 1.0391 0.58594 1.4141s0.88281 0.58594 1.4141 0.58594h6v6h-4.1992c-0.94531-4.6602-5.0469-8.0117-9.8008-8.0117s-8.8555 3.3516-9.8008 8.0117h-8.1992v-44h10v18c0 0.53125 0.21094 1.0391 0.58594 1.4141s0.88281 0.58594 1.4141 0.58594h10.98c0.011719 0 0.019531 0.007812 0.019531 0.019531l9 5.1406z"/>
  <path d="m100 78h8v4h-8z"/>
  <path d="m28 110h-24v4h120v-4z"/>
  <path d="m48 78c5.3047 0 10.391-2.1055 14.141-5.8594 3.7539-3.75 5.8594-8.8359 5.8594-14.141s-2.1055-10.391-5.8594-14.141c-3.75-3.7539-8.8359-5.8594-14.141-5.8594s-10.391 2.1055-14.141 5.8594c-3.7539 3.75-5.8594 8.8359-5.8594 14.141 0.003906 5.3008 2.1133 10.387 5.8633 14.137s8.8359 5.8594 14.137 5.8633zm0-36c4.2422 0 8.3125 1.6875 11.312 4.6875s4.6875 7.0703 4.6875 11.312-1.6875 8.3125-4.6875 11.312-7.0703 4.6875-11.312 4.6875-8.3125-1.6875-11.312-4.6875-4.6875-7.0703-4.6875-11.312c0.003906-4.2422 1.6914-8.3086 4.6914-11.309s7.0664-4.6875 11.309-4.6914z"/>
  <path d="m47.105 59.801 8 4 1.7891-3.5781-6.8945-3.457v-10.766h-4v12c-0.003906 0.76172 0.42578 1.4609 1.1055 1.8008z"/>
  <path d="m26 98h4v4h-4z"/>
  <path d="m44 98h4v4h-4z"/>
  <path d="m104 98h4v4h-4z"/>
 </g>
</svg>
