<?xml version="1.0" encoding="UTF-8"?>
<svg width="128pt" height="128pt" version="1.1" viewBox="0 0 128 128" fill= "grey" xmlns="http://www.w3.org/2000/svg">
 <g>
  <path d="m87.371 112.77h-60.953c-1.125 0-2.0352-0.91016-2.0352-2.0352v-93.469c0-1.125 0.91016-2.0352 2.0352-2.0352h43.648c0.58984 0 1.1406 0.25781 1.5234 0.69141l17.305 19.688c0.32031 0.37109 0.51172 0.84375 0.51172 1.3438v21.312c0 0.53906-0.21875 1.0508-0.60156 1.4336l-24.512 24.523-2.8555 5.707 5.707-2.8555 18.789-18.789c0.57422-0.57422 1.4453-0.75391 2.2148-0.43359 0.75391 0.32031 1.2539 1.0508 1.2539 1.8828v41c-0.007813 1.125-0.91406 2.0352-2.0312 2.0352zm-58.93-4.0703h56.895v-34.062l-15.551 15.551c-0.15234 0.15234-0.33203 0.28125-0.52344 0.38281l-11.457 5.7344c-0.78125 0.38281-1.7266 0.23047-2.3438-0.38281-0.61328-0.61328-0.76953-1.5625-0.38281-2.3438l5.7344-11.457c0.10156-0.19141 0.23047-0.37109 0.38281-0.52344l24.152-24.152v-19.711l-16.215-18.434h-40.691z"/>
  <path d="m87.371 38.988h-17.305c-1.125 0-2.0352-0.91016-2.0352-2.0352v-19.672c0-1.125 0.91016-2.0352 2.0352-2.0352s2.0352 0.91016 2.0352 2.0352v17.652h15.27c1.125 0 2.0352 0.91016 2.0352 2.0352s-0.91797 2.0195-2.0352 2.0195z"/>
  <path d="m56.895 96.512c-0.52344 0-1.0508-0.20312-1.4336-0.60156-0.61328-0.61328-0.76953-1.5625-0.38281-2.3438l5.7344-11.457c0.10156-0.19141 0.23047-0.37109 0.38281-0.52344l27.891-27.891c0.76953-0.76953 2.1133-0.76953 2.8672 0l5.7344 5.7344c0.38281 0.38281 0.60156 0.89453 0.60156 1.4336 0 0.53906-0.21875 1.0508-0.60156 1.4336l-27.902 27.891c-0.15234 0.15234-0.33203 0.28125-0.52344 0.38281l-11.457 5.7344c-0.29297 0.12891-0.60156 0.20703-0.91016 0.20703zm7.3984-12.289-2.8555 5.707 5.707-2.8555 26.227-26.227-2.8555-2.8555z"/>
  <path d="m96.242 62.887c-0.53906 0-1.0508-0.21875-1.4336-0.60156l-5.7344-5.7344c-0.38281-0.38281-0.60156-0.89453-0.60156-1.4336 0-0.53906 0.21875-1.0508 0.60156-1.4336l4.5586-4.5586c1.8438-1.8438 4.8516-1.8438 6.6953 0l1.9062 1.9062c1.8438 1.8438 1.8438 4.8516 0 6.6953l-4.5586 4.5586c-0.37109 0.38281-0.89453 0.60156-1.4336 0.60156zm-2.8516-7.7695 2.8555 2.8555 3.1094-3.1094c0.16797-0.16797 0.19141-0.34375 0.19141-0.47266s-0.039063-0.30859-0.19141-0.47266l-1.9062-1.9062c-0.33203-0.32031-0.61328-0.32031-0.94531 0z"/>
  <path d="m77.211 49.777h-42.664c-1.125 0-2.0352-0.91016-2.0352-2.0352s0.91016-2.0352 2.0352-2.0352h42.664c1.125 0 2.0352 0.91016 2.0352 2.0352 0 1.1289-0.91016 2.0352-2.0352 2.0352z"/>
  <path d="m73.141 74.164h-38.594c-1.125 0-2.0352-0.91016-2.0352-2.0352s0.91016-2.0352 2.0352-2.0352h38.605c1.125 0 2.0352 0.91016 2.0352 2.0352s-0.92188 2.0352-2.0469 2.0352z"/>
  <path d="m56.895 96.512h-22.348c-1.125 0-2.0352-0.91016-2.0352-2.0352s0.91016-2.0352 2.0352-2.0352h22.348c1.125 0 2.0352 0.91016 2.0352 2.0352s-0.92188 2.0352-2.0352 2.0352z"/>
 </g>
</svg>
