<?xml version="1.0" encoding="UTF-8"?>
<svg width="128pt" height="128pt" version="1.1" viewBox="0 0 128 128" xmlns="http://www.w3.org/2000/svg">
 <g>
  <path d="m58.668 44h-10.668c-0.73828 0-1.332 0.59766-1.332 1.332v10.668c0 0.35547 0.14062 0.69141 0.39062 0.94141s0.58594 0.39062 0.94141 0.39062h10.668c0.35156 0 0.69141-0.14062 0.94141-0.39062s0.39062-0.58594 0.39062-0.94141v-10.668c0-0.35156-0.14062-0.69141-0.39062-0.94141s-0.58984-0.39062-0.94141-0.39062zm-1.332 10.668h-8.0039v-8h8z"/>
  <path d="m69.332 57.332h10.668c0.35547 0 0.69141-0.14062 0.94141-0.39062s0.39062-0.58594 0.39062-0.94141v-10.668c0-0.35156-0.14062-0.69141-0.39062-0.94141s-0.58594-0.39062-0.94141-0.39062h-10.668c-0.73438 0-1.332 0.59766-1.332 1.332v10.668c0 0.35547 0.14062 0.69141 0.39062 0.94141s0.58984 0.39062 0.94141 0.39062zm1.332-10.668h8v8l-7.9961 0.003907z"/>
  <path d="m90.668 57.332h10.668-0.003907c0.35547 0 0.69531-0.14062 0.94531-0.39062s0.39062-0.58594 0.39062-0.94141v-10.668c0-0.35156-0.14062-0.69141-0.39062-0.94141s-0.58984-0.39062-0.94531-0.39062h-10.664c-0.73828 0-1.3359 0.59766-1.3359 1.332v10.668c0 0.35547 0.14062 0.69141 0.39062 0.94141s0.58984 0.39062 0.94531 0.39062zm1.332-10.668h8v8l-8 0.003907z"/>
  <path d="m37.332 62.668h-10.664c-0.73828 0-1.3359 0.59375-1.3359 1.332v10.668c0 0.35156 0.14062 0.69141 0.39062 0.94141s0.58984 0.39062 0.94531 0.39062h10.668-0.003907c0.35547 0 0.69531-0.14062 0.94531-0.39062s0.39062-0.58984 0.39062-0.94141v-10.668c0-0.35547-0.14062-0.69141-0.39062-0.94141s-0.58984-0.39062-0.94531-0.39062zm-1.332 10.668-8-0.003907v-8h8z"/>
  <path d="m58.668 62.668h-10.668c-0.73828 0-1.332 0.59375-1.332 1.332v10.668c0 0.35156 0.14062 0.69141 0.39062 0.94141s0.58594 0.39062 0.94141 0.39062h10.668c0.35156 0 0.69141-0.14062 0.94141-0.39062s0.39062-0.58984 0.39062-0.94141v-10.668c0-0.35547-0.14062-0.69141-0.39062-0.94141s-0.58984-0.39062-0.94141-0.39062zm-1.332 10.668-8.0039-0.003907v-8h8z"/>
  <path d="m69.332 76h10.668c0.35547 0 0.69141-0.14062 0.94141-0.39062s0.39062-0.58984 0.39062-0.94141v-10.668c0-0.35547-0.14062-0.69141-0.39062-0.94141s-0.58594-0.39062-0.94141-0.39062h-10.668c-0.73438 0-1.332 0.59375-1.332 1.332v10.668c0 0.35156 0.14062 0.69141 0.39062 0.94141s0.58984 0.39062 0.94141 0.39062zm1.332-10.668h8v8h-7.9961z"/>
  <path d="m37.332 81.332h-10.664c-0.73828 0-1.3359 0.59766-1.3359 1.3359v10.668-0.003907c0 0.35547 0.14062 0.69531 0.39062 0.94531s0.58984 0.39062 0.94531 0.39062h10.668-0.003907c0.35547 0 0.69531-0.14062 0.94531-0.39062s0.39062-0.58984 0.39062-0.94531v-10.664c0-0.35547-0.14062-0.69531-0.39062-0.94531s-0.58984-0.39062-0.94531-0.39062zm-1.332 10.668h-8v-8h8z"/>
  <path d="m58.668 81.332h-10.668c-0.73828 0-1.332 0.59766-1.332 1.3359v10.668-0.003907c0 0.35547 0.14062 0.69531 0.39062 0.94531s0.58594 0.39062 0.94141 0.39062h10.668c0.35156 0 0.69141-0.14062 0.94141-0.39062s0.39062-0.58984 0.39062-0.94531v-10.664c0-0.35547-0.14062-0.69531-0.39062-0.94531s-0.58984-0.39062-0.94141-0.39062zm-1.332 10.668h-8.0039v-8h8z"/>
  <path d="m80 81.332h-10.668c-0.73438 0-1.332 0.59766-1.332 1.3359v10.668-0.003907c0 0.35547 0.14062 0.69531 0.39062 0.94531s0.58984 0.39062 0.94141 0.39062h10.668c0.35547 0 0.69141-0.14062 0.94141-0.39062s0.39062-0.58984 0.39062-0.94531v-10.664c0-0.35547-0.14062-0.69531-0.39062-0.94531s-0.58594-0.39062-0.94141-0.39062zm-1.332 10.668h-8v-8h8z"/>
  <path d="m116 76.691v-39.359h1.332c0.35547 0 0.69531-0.14062 0.94531-0.39062s0.39062-0.58594 0.39062-0.94141v-13.332c0-0.35547-0.14062-0.69531-0.39062-0.94531s-0.58984-0.39062-0.94531-0.39062h-5.332v-2.6641c0-0.73828-0.59766-1.3359-1.332-1.3359-0.73828 0-1.3359 0.59766-1.3359 1.3359v2.668l-6.6641-0.003907v-2.6641c0-0.73828-0.59766-1.3359-1.3359-1.3359-0.73438 0-1.332 0.59766-1.332 1.3359v2.668l-6.668-0.003907v-2.6641c0-0.73828-0.59375-1.3359-1.332-1.3359s-1.332 0.59766-1.332 1.3359v2.668l-6.668-0.003907v-2.6641c0-0.73828-0.59766-1.3359-1.332-1.3359-0.73828 0-1.3359 0.59766-1.3359 1.3359v2.668l-6.6641-0.003907v-2.6641c0-0.73828-0.59766-1.3359-1.3359-1.3359-0.73438 0-1.332 0.59766-1.332 1.3359v2.668l-6.668-0.003907v-2.6641c0-0.73828-0.59375-1.3359-1.332-1.3359s-1.332 0.59766-1.332 1.3359v2.668l-6.668-0.003907v-2.6641c0-0.73828-0.59766-1.3359-1.332-1.3359-0.73828 0-1.3359 0.59766-1.3359 1.3359v2.668l-6.6641-0.003907v-2.6641c0-0.73828-0.59766-1.3359-1.3359-1.3359-0.73438 0-1.332 0.59766-1.332 1.3359v2.668l-6.668-0.003907v-2.6641c0-0.73828-0.59375-1.3359-1.332-1.3359s-1.332 0.59766-1.332 1.3359v2.668l-6.668-0.003907v-2.6641c0-0.73828-0.59766-1.3359-1.332-1.3359-0.73828 0-1.3359 0.59766-1.3359 1.3359v2.668l-6.6641-0.003907v-2.6641c0-0.73828-0.59766-1.3359-1.3359-1.3359-0.73438 0-1.332 0.59766-1.332 1.3359v2.668l-5.332-0.003907c-0.73828 0-1.3359 0.59766-1.3359 1.3359v13.332c0 0.35547 0.14062 0.69141 0.39062 0.94141s0.58984 0.39062 0.94531 0.39062h1.332v58.547c0 4.4805 3.6289 8.1133 8.1055 8.1211h64.109c3.1602 5.5195 8.6211 9.3359 14.891 10.414 6.2695 1.0781 12.691-0.69531 17.516-4.8398 4.8281-4.1484 7.5508-10.227 7.4297-16.59-0.12109-6.3594-3.0742-12.332-8.0508-16.293zm-104-52.691h4v2.668c0 0.73438 0.59766 1.332 1.332 1.332 0.73828 0 1.3359-0.59766 1.3359-1.332v-2.668h6.668v2.668h-0.003907c0 0.73438 0.59766 1.332 1.3359 1.332 0.73438 0 1.332-0.59766 1.332-1.332v-2.668h6.668v2.668c0 0.73438 0.59375 1.332 1.332 1.332s1.332-0.59766 1.332-1.332v-2.668h6.668v2.668c0 0.73438 0.59766 1.332 1.332 1.332 0.73828 0 1.3359-0.59766 1.3359-1.332v-2.668h6.668v2.668h-0.003907c0 0.73438 0.59766 1.332 1.3359 1.332 0.73438 0 1.332-0.59766 1.332-1.332v-2.668h6.668v2.668c0 0.73438 0.59375 1.332 1.332 1.332s1.332-0.59766 1.332-1.332v-2.668h6.668v2.668c0 0.73438 0.59766 1.332 1.332 1.332 0.73828 0 1.3359-0.59766 1.3359-1.332v-2.668h6.668v2.668h-0.003907c0 0.73438 0.59766 1.332 1.3359 1.332 0.73438 0 1.332-0.59766 1.332-1.332v-2.668h6.668v2.668c0 0.73438 0.59375 1.332 1.332 1.332s1.332-0.59766 1.332-1.332v-2.668h6.668v2.668c0 0.73438 0.59766 1.332 1.332 1.332 0.73828 0 1.3359-0.59766 1.3359-1.332v-2.668h6.668v2.668h-0.003907c0 0.73438 0.59766 1.332 1.3359 1.332 0.73438 0 1.332-0.59766 1.332-1.332v-2.668h4v10.668h-104zm8.1211 77.332c-1.4492 0-2.8359-0.57422-3.8555-1.5977-1.0234-1.0195-1.5977-2.4062-1.5977-3.8555v-58.547h98.664v37.547c-3.2344-1.8867-6.918-2.8828-10.664-2.8789v-8c0-0.35547-0.14062-0.69141-0.39062-0.94141s-0.58984-0.39062-0.94531-0.39062h-10.664c-0.73828 0-1.3359 0.59375-1.3359 1.332v10.668c-0.015625 0.62891 0.41406 1.1875 1.0273 1.332-5.6328 3.9805-8.9961 10.438-9.0273 17.332 0 2.7461 0.53516 5.4609 1.5742 8zm75.199-28h-3.3203v-8h8v6.8555c-1.5977 0.19922-3.168 0.58594-4.6797 1.1445zm7.3477 38.668c-4.9531 0-9.6992-1.9648-13.199-5.4688-3.5039-3.5-5.4688-8.2461-5.4688-13.199 0-4.9492 1.9648-9.6992 5.4688-13.199 3.5-3.5 8.2461-5.4648 13.199-5.4648 4.9492 0 9.6992 1.9648 13.199 5.4648s5.4648 8.25 5.4648 13.199c0 4.9531-1.9648 9.6992-5.4648 13.199-3.5 3.5039-8.25 5.4688-13.199 5.4688z"/>
  <path d="m102.67 76c-4.5977 0-9.0078 1.8281-12.258 5.0781s-5.0781 7.6562-5.0781 12.254c0 4.5977 1.8281 9.0078 5.0781 12.258s7.6602 5.0781 12.258 5.0781c4.5977 0 9.0039-1.8281 12.254-5.0781s5.0781-7.6602 5.0781-12.258c0-4.5977-1.8281-9.0039-5.0781-12.254s-7.6562-5.0781-12.254-5.0781zm0 32c-3.8906 0-7.6211-1.5469-10.371-4.2969s-4.2969-6.4805-4.2969-10.371c0-3.8867 1.5469-7.6172 4.2969-10.371 2.75-2.75 6.4805-4.293 10.371-4.293 3.8867 0 7.6172 1.543 10.371 4.293 2.75 2.7539 4.293 6.4844 4.293 10.371 0 3.8906-1.543 7.6211-4.293 10.371-2.7539 2.75-6.4844 4.2969-10.371 4.2969z"/>
  <path d="m109.88 92h-5.8789v-8.332c0-0.73828-0.59766-1.3359-1.332-1.3359-0.73828 0-1.3359 0.59766-1.3359 1.3359v9.6641c0 0.35547 0.14062 0.69531 0.39062 0.94531s0.58984 0.39062 0.94531 0.39062h7.2148-0.003906c0.73828 0 1.3359-0.59766 1.3359-1.3359 0-0.73438-0.59766-1.332-1.3359-1.332z"/>
 </g>
</svg>
